<svg xmlns="http://www.w3.org/2000/svg" viewBox="0 0 441 657"><defs><style>.cls-1{fill:#d8e0e8;}.cls-2{fill:#b4c6d8;}.cls-3{fill:#aaffe5;}</style></defs><g id="Layer_2" data-name="Layer 2"><g id="Layer_1-2" data-name="Layer 1"><rect class="cls-1" x="72" y="126" width="360" height="468"/><rect class="cls-2" x="81" y="585" width="351" height="63"/><rect width="432" height="10" transform="translate(432 10) rotate(180)"/><rect x="112.5" y="319.5" width="648" height="9" transform="translate(760.5 -112.5) rotate(90)"/><rect x="288" y="225" width="144" height="10" transform="translate(720 460) rotate(180)"/><rect x="211.5" y="85.5" width="162" height="9" transform="translate(382.5 -202.5) rotate(90)"/><rect x="139.5" y="85.5" width="162" height="9" transform="translate(310.5 -130.5) rotate(90)"/><rect x="279" y="143" width="9" height="10" transform="translate(567 296) rotate(180)"/><rect x="225" y="143" width="18" height="10" transform="translate(468 296) rotate(180)"/><rect x="288" y="215" width="9" height="10" transform="translate(585 440) rotate(180)"/><rect x="-103.5" y="112.5" width="216" height="9" transform="translate(121.5 112.5) rotate(90)"/><rect y="225" width="234" height="9" transform="translate(234 459) rotate(180)"/><rect x="216" y="216" width="9" height="9" transform="translate(441 441) rotate(180)"/><rect x="162" y="333" width="135" height="9" transform="translate(567 108) rotate(90)"/><rect x="72" y="396" width="162" height="9" transform="translate(306 801) rotate(180)"/><rect x="-13.5" y="319.5" width="180" height="9" transform="translate(400.5 247.5) rotate(90)"/><rect y="575" width="360" height="10" transform="translate(360 1160) rotate(180)"/><rect x="-13.5" y="562.5" width="180" height="9" transform="translate(643.5 490.5) rotate(90)"/><rect y="396" width="72" height="9" transform="translate(72 801) rotate(180)"/><rect x="-81" y="486" width="171" height="9" transform="translate(495 486) rotate(90)"/><rect x="414" y="575" width="18" height="10" transform="translate(846 1160) rotate(180)"/><rect x="81" y="648" width="360" height="9" transform="translate(522 1305) rotate(180)"/><rect x="171" y="630" width="27" height="9" transform="translate(819 449.99) rotate(90)"/><rect class="cls-2" x="297" y="9" width="135" height="216"/><rect class="cls-2" x="9" y="9" width="207" height="216"/><rect class="cls-2" x="81" y="234" width="144" height="162"/><rect class="cls-3" x="225" y="9" width="63" height="135"/><rect class="cls-2" x="9" y="405" width="63" height="171"/></g></g></svg>