<svg xmlns="http://www.w3.org/2000/svg" viewBox="0 0 1992.5 707.21"><defs><style>.cls-1{fill:#60a1d7;}.cls-1,.cls-3,.cls-4,.cls-5,.cls-6,.cls-7{stroke:#000;stroke-miterlimit:10;}.cls-2{fill:#d5c39f;}.cls-3{fill:#53b7e9;}.cls-4{fill:#eb8488;}.cls-5{fill:#003b5f;}.cls-6{fill:none;}.cls-7{fill:#0084b4;stroke-width:2px;}.cls-8{fill:lime;}</style></defs><g id="Layer_2" data-name="Layer 2"><g id="Layer_2-2" data-name="Layer 2"><path class="cls-1" d="M1992,171.61V396.33H1873.11l-2.06,112L1591.11,706.25H321.42l-153.93-189,1.38-120.94H118.7v-.16q-2.94.16-5.91.16a112.36,112.36,0,0,1,0-224.72q3,0,5.91.15v-.15H921.35V64.41H886.3V.5h323V171.61Z"/></g><g id="Layer_4" data-name="Layer 4"><rect class="cls-2" x="182.26" y="171.96" width="1404.63" height="228.15"/><rect class="cls-2" x="943.68" y="2.22" width="253.58" height="622.6"/><rect class="cls-2" x="1127.85" y="358.87" width="253.58" height="163.55"/></g><g id="Layer_3" data-name="Layer 3"><rect class="cls-1" x="183.29" y="171.61" width="35.73" height="67.35"/><rect class="cls-1" x="219.03" y="171.61" width="46.73" height="67.35"/><rect class="cls-1" x="265.76" y="171.61" width="43.29" height="67.35"/><rect class="cls-1" x="324.17" y="171.61" width="26.11" height="67.35"/><rect class="cls-1" x="350.28" y="171.61" width="26.11" height="67.35"/><rect class="cls-1" x="376.4" y="171.61" width="26.11" height="67.35"/><rect class="cls-1" x="402.51" y="171.61" width="28.18" height="67.35"/><rect class="cls-1" x="430.69" y="171.61" width="28.18" height="67.35"/><rect class="cls-1" x="458.86" y="171.61" width="25.43" height="67.35"/><rect class="cls-1" x="484.29" y="171.61" width="24.74" height="67.35"/><rect class="cls-1" x="509.03" y="171.61" width="75.59" height="67.35"/><rect class="cls-1" x="584.62" y="171.61" width="26.8" height="67.35"/><rect class="cls-1" x="626.54" y="171.61" width="24.74" height="67.35"/><rect class="cls-1" x="651.28" y="171.61" width="42.61" height="67.35"/><rect class="cls-1" x="693.88" y="171.61" width="40.54" height="67.35"/><rect class="cls-1" x="734.43" y="171.61" width="24.74" height="67.35"/><rect class="cls-1" x="759.17" y="171.61" width="29.55" height="67.35"/><rect class="cls-1" x="788.72" y="171.61" width="27.49" height="67.35"/><rect class="cls-1" x="816.2" y="171.61" width="28.86" height="67.35"/><rect class="cls-1" x="845.07" y="171.61" width="26.8" height="67.35"/><rect class="cls-1" x="886.99" y="171.61" width="34.36" height="67.35"/><rect class="cls-1" x="921.35" y="203.22" width="83.84" height="35.73"/><rect class="cls-1" x="921.35" y="167.49" width="83.84" height="35.73"/><rect class="cls-1" x="921.35" y="137.25" width="83.84" height="30.24"/><rect class="cls-1" x="921.35" y="99.46" width="83.84" height="37.8"/><rect class="cls-1" x="921.35" y="65.1" width="83.84" height="34.36"/><rect class="cls-1" x="957.08" y="24.55" width="48.1" height="40.54"/><polygon class="cls-1" points="1005.18 0.5 1005.18 24.55 957.08 24.55 957.08 64.41 886.3 64.41 886.3 0.5 1005.18 0.5"/><rect class="cls-3" x="1054.66" y="10.81" width="22.68" height="19.93"/><rect class="cls-3" x="1050.54" y="47.23" width="28.86" height="21.99"/><rect class="cls-3" x="1054.66" y="86.4" width="21.99" height="26.11"/><rect class="cls-3" x="1054.66" y="112.51" width="21.99" height="26.11"/><rect class="cls-3" x="1054.66" y="147.56" width="21.99" height="26.11"/><rect class="cls-3" x="1054.66" y="173.67" width="21.99" height="26.11"/><rect class="cls-1" x="1124.76" y="0.5" width="83.84" height="53.6"/><rect class="cls-1" x="1124.76" y="54.1" width="83.84" height="58.41"/><rect class="cls-1" x="1124.76" y="112.51" width="83.84" height="58.41"/><rect class="cls-1" x="1124.76" y="170.93" width="44.67" height="68.72"/><rect class="cls-1" x="1169.42" y="170.93" width="39.17" height="68.72"/><rect class="cls-1" x="1208.59" y="171.61" width="33.67" height="68.03"/><rect class="cls-1" x="1257.39" y="172.3" width="23.36" height="67.35"/><rect class="cls-1" x="1280.75" y="172.3" width="23.36" height="67.35"/><rect class="cls-1" x="1304.11" y="171.61" width="27.49" height="68.03"/><rect class="cls-1" x="1331.6" y="172.3" width="37.8" height="67.35"/><rect class="cls-1" x="1369.4" y="171.61" width="35.73" height="68.03"/><rect class="cls-1" x="1405.13" y="171.61" width="38.48" height="68.03"/><rect class="cls-1" x="1443.62" y="171.61" width="32.99" height="68.03"/><rect class="cls-1" x="1476.6" y="171.61" width="25.43" height="68.03"/><rect class="cls-1" x="1502.03" y="171.61" width="28.86" height="68.03"/><rect class="cls-1" x="1530.89" y="171.61" width="41.92" height="68.03"/><rect class="cls-1" x="1518.52" y="317.99" width="70.09" height="81.78"/><rect class="cls-1" x="1443.62" y="317.99" width="74.9" height="81.78"/><rect class="cls-1" x="1406.51" y="317.99" width="37.11" height="81.78"/><rect class="cls-1" x="1363.9" y="317.99" width="42.61" height="81.78"/><rect class="cls-1" x="1227.84" y="320.73" width="57.04" height="90.02"/><rect class="cls-1" x="1174.23" y="320.73" width="53.6" height="34.36"/><polygon class="cls-1" points="1227.84 355.09 1227.84 410.76 1152.24 410.76 1152.24 320.73 1174.23 320.73 1174.23 355.09 1227.84 355.09"/><rect class="cls-1" x="1116.51" y="333.1" width="35.39" height="34.36"/><rect class="cls-1" x="1116.73" y="367.54" width="35.39" height="42.88"/><rect class="cls-1" x="1116.73" y="410.7" width="35.39" height="42.88"/><rect class="cls-1" x="1152.46" y="410.7" width="49.61" height="42.88"/><rect class="cls-1" x="1202.39" y="410.7" width="52.59" height="42.87"/><rect class="cls-3" x="1125.44" y="269.19" width="26.11" height="22.68"/><rect class="cls-3" x="1151.56" y="269.19" width="26.11" height="22.68"/><rect class="cls-3" x="1183.86" y="268.51" width="26.11" height="22.68"/><rect class="cls-3" x="1209.97" y="268.51" width="26.11" height="22.68"/><rect class="cls-3" x="1242.27" y="268.51" width="26.11" height="22.68"/><rect class="cls-3" x="1267.69" y="268.51" width="26.11" height="22.68"/><rect class="cls-3" x="1299.99" y="268.51" width="26.11" height="22.68"/><rect class="cls-3" x="1326.11" y="268.51" width="26.11" height="22.68"/><rect class="cls-3" x="1359.09" y="268.51" width="26.11" height="22.68"/><rect class="cls-3" x="1385.2" y="268.51" width="26.11" height="22.68"/><rect class="cls-3" x="1427.12" y="268.51" width="28.18" height="22.68"/><rect class="cls-3" x="1459.42" y="268.51" width="28.86" height="22.68"/><rect class="cls-3" x="1052.6" y="333.79" width="22.68" height="27.49"/><rect class="cls-3" x="1052.6" y="360.59" width="22.68" height="27.49"/><rect class="cls-3" x="1053.97" y="392.89" width="22.68" height="27.49"/><rect class="cls-3" x="1053.97" y="420.38" width="22.68" height="25.43"/><rect class="cls-3" x="1053.97" y="451.99" width="22.68" height="25.43"/><rect class="cls-3" x="1053.97" y="477.42" width="22.68" height="25.43"/><rect class="cls-3" x="1053.97" y="511.09" width="22.68" height="25.43"/><rect class="cls-3" x="1053.97" y="536.51" width="22.68" height="25.43"/><polygon class="cls-1" points="1015.49 477.42 1015.49 508.34 981.82 508.34 981.82 535.83 943.34 535.83 943.34 477.42 1015.49 477.42"/><rect class="cls-1" x="981.82" y="508.34" width="33.67" height="27.49"/><rect class="cls-1" x="943.34" y="410.76" width="37.11" height="40.54"/><rect class="cls-1" x="980.44" y="410.76" width="35.05" height="40.54"/><rect class="cls-1" x="981.13" y="370.21" width="35.05" height="40.54"/><rect class="cls-1" x="981.13" y="333.1" width="35.05" height="37.11"/><rect class="cls-1" x="943.34" y="321.42" width="37.8" height="89.34"/><rect class="cls-1" x="920.66" y="355.09" width="22.68" height="43.29"/><rect class="cls-1" x="895.92" y="355.09" width="24.74" height="43.29"/><rect class="cls-1" x="871.87" y="355.09" width="24.05" height="43.29"/><rect class="cls-1" x="838.19" y="355.09" width="33.67" height="43.29"/><rect class="cls-1" x="788.72" y="321.42" width="49.48" height="76.97"/><rect class="cls-1" x="758.48" y="321.42" width="30.24" height="76.97"/><rect class="cls-1" x="709.69" y="321.42" width="48.79" height="76.97"/><rect class="cls-1" x="660.9" y="321.42" width="48.79" height="76.97"/><rect class="cls-1" x="602.49" y="321.42" width="58.41" height="76.97"/><rect class="cls-1" x="550.26" y="321.42" width="52.23" height="76.97"/><rect class="cls-1" x="458.86" y="320.73" width="91.4" height="76.97"/><rect class="cls-1" x="335.17" y="320.73" width="45.36" height="76.97"/><rect class="cls-1" x="296.68" y="320.73" width="38.48" height="77.65"/><rect class="cls-1" x="254.08" y="320.73" width="42.61" height="77.65"/><rect class="cls-1" x="219.03" y="320.73" width="35.05" height="77.65"/><rect class="cls-1" x="183.98" y="320.73" width="35.05" height="77.65"/><polygon class="cls-1" points="549.91 397.7 549.91 706.25 321.08 706.25 167.83 517.27 167.83 397.7 380.18 397.7 380.18 361.28 458.52 361.28 458.52 397.7 549.91 397.7"/><rect class="cls-1" x="1117.88" y="477.42" width="40.54" height="30.92"/><rect class="cls-1" x="1158.43" y="477.42" width="34.36" height="30.92"/><rect class="cls-1" x="1192.79" y="477.42" width="32.99" height="30.92"/><rect class="cls-1" x="1225.77" y="477.42" width="28.86" height="54.29"/><rect class="cls-1" x="1117.88" y="508.34" width="107.89" height="23.36"/><rect class="cls-3" x="239.64" y="269.88" width="26.11" height="20.62"/><rect class="cls-3" x="265.76" y="269.88" width="26.11" height="20.62"/><rect class="cls-3" x="296.68" y="269.88" width="26.11" height="20.62"/><rect class="cls-3" x="322.8" y="269.88" width="26.11" height="20.62"/><rect class="cls-3" x="355.09" y="269.88" width="26.11" height="20.62"/><rect class="cls-3" x="381.21" y="269.88" width="26.11" height="20.62"/><rect class="cls-3" x="410.76" y="269.88" width="28.86" height="20.62"/><rect class="cls-3" x="478.79" y="269.19" width="29.55" height="21.3"/><rect class="cls-3" x="513.15" y="269.88" width="25.43" height="21.3"/><rect class="cls-3" x="538.58" y="269.88" width="26.8" height="21.3"/><rect class="cls-3" x="570.87" y="269.88" width="28.86" height="21.3"/><rect class="cls-3" x="607.3" y="269.88" width="26.11" height="21.3"/><rect class="cls-3" x="633.41" y="269.88" width="26.11" height="21.3"/><rect class="cls-3" x="668.46" y="269.19" width="26.11" height="21.3"/><rect class="cls-3" x="694.57" y="269.19" width="26.11" height="21.3"/><rect class="cls-3" x="732.37" y="269.88" width="29.55" height="21.3"/><rect class="cls-3" x="773.6" y="269.19" width="26.8" height="21.3"/><rect class="cls-3" x="800.4" y="269.19" width="26.8" height="21.3"/><rect class="cls-3" x="833.38" y="269.19" width="26.8" height="21.3"/><rect class="cls-3" x="860.18" y="269.19" width="26.8" height="21.3"/><rect class="cls-3" x="894.54" y="269.19" width="26.8" height="21.3"/><rect class="cls-3" x="921.35" y="269.19" width="24.74" height="21.3"/><rect class="cls-3" x="952.96" y="269.19" width="26.8" height="21.3"/><rect class="cls-3" x="979.76" y="269.19" width="26.11" height="21.3"/><rect class="cls-3" x="877.36" y="320.73" width="26.8" height="21.3"/><line class="cls-1" x1="183.29" y1="238.96" x2="183.98" y2="320.73"/><polygon class="cls-4" points="1588.62 399.76 1588.62 706.25 549.57 706.25 549.57 398.39 943.34 398.39 943.34 535.83 1015.49 535.83 1015.49 625.16 1117.88 625.16 1117.88 531.7 1254.64 531.7 1254.64 453.57 1254.98 453.57 1254.98 410.76 1284.87 410.76 1284.87 399.76 1588.62 399.76"/><rect class="cls-5" x="1254.64" y="410.76" width="0.34" height="42.81"/><polygon class="cls-4" points="1992 171.61 1992 396.33 1872.43 396.33 1872.43 508.34 1588.62 706.25 1588.62 171.61 1992 171.61"/><rect class="cls-1" x="1827.76" y="438.25" width="44.67" height="70.09"/><line class="cls-6" x1="183.64" y1="228.31" x2="184.33" y2="321.08"/></g><g id="Layer_5" data-name="Layer 5"><rect class="cls-7" x="212.16" y="271.26" width="3.44" height="9.62" rx="1.27"/><polygon class="cls-7" points="236.21 267.13 236.21 274 227.06 274 206.63 293.33 206.56 293.25 197.04 293.25 197.04 286.37 204.93 286.37 225.21 267.18 225.27 267.13 236.21 267.13"/><circle class="cls-7" cx="213.87" cy="270.23" r="1.72"/><rect class="cls-7" x="455.87" y="272.72" width="2.83" height="7.93" rx="1.05"/><polygon class="cls-7" points="475.7 269.32 475.7 274.99 468.16 274.99 451.31 290.92 451.25 290.86 443.4 290.86 443.4 285.19 449.9 285.19 466.63 269.36 466.68 269.32 475.7 269.32"/><circle class="cls-7" cx="457.28" cy="271.87" r="1.42"/><rect class="cls-7" x="1000.72" y="304.59" width="3.44" height="9.62" rx="1.27"/><polygon class="cls-7" points="1024.77 300.46 1024.77 307.33 1015.62 307.33 995.19 326.66 995.12 326.57 985.6 326.57 985.6 319.7 993.49 319.7 1013.77 300.51 1013.83 300.46 1024.77 300.46"/><circle class="cls-7" cx="1002.43" cy="303.55" r="1.72"/><rect class="cls-7" x="1059.13" y="584.27" width="3.44" height="9.62" rx="1.27"/><polygon class="cls-7" points="1083.18 580.15 1083.18 587.02 1074.03 587.02 1053.6 606.35 1053.53 606.26 1044.01 606.26 1044.01 599.39 1051.9 599.39 1072.18 580.2 1072.24 580.15 1083.18 580.15"/><circle class="cls-7" cx="1060.85" cy="583.24" r="1.72"/><rect class="cls-7" x="1527.11" y="271.6" width="3.44" height="9.62" rx="1.27"/><polygon class="cls-7" points="1551.16 267.48 1551.16 274.35 1542.02 274.35 1521.59 293.67 1521.51 293.59 1511.99 293.59 1511.99 286.72 1519.88 286.72 1540.17 267.52 1540.22 267.48 1551.16 267.48"/><circle class="cls-7" cx="1528.83" cy="270.57" r="1.72"/><rect class="cls-7" x="1610.95" y="270.91" width="3.44" height="9.62" rx="1.27"/><polygon class="cls-7" points="1635 266.79 1635 273.66 1625.85 273.66 1605.42 292.99 1605.35 292.9 1595.83 292.9 1595.83 286.03 1603.72 286.03 1624.01 266.84 1624.06 266.79 1635 266.79"/><circle class="cls-7" cx="1612.67" cy="269.88" r="1.72"/></g><g id="path"><rect class="cls-8" x="190" y="250.75" width="1394" height="3"/><rect class="cls-8" x="190" y="304.75" width="1394" height="3"/><rect class="cls-8" x="315" y="175.75" width="3" height="77"/><rect class="cls-8" x="351" y="251.75" width="3" height="55"/><rect class="cls-8" x="602" y="252.75" width="3" height="55"/><rect class="cls-8" x="1418" y="251.75" width="3" height="55"/><rect class="cls-8" x="1095" y="10.75" width="3" height="607"/><rect class="cls-8" x="1031" y="12.75" width="3" height="607"/><rect class="cls-8" x="1031" y="75.75" width="66" height="3"/><rect class="cls-8" x="1032" y="141.75" width="66" height="3"/><rect class="cls-8" x="1031" y="505.75" width="66" height="3"/><rect class="cls-8" x="966" y="461.75" width="66" height="3"/><rect class="cls-8" x="1096" y="461.75" width="155" height="3"/><rect class="cls-8" x="1323" y="305.75" width="3" height="83"/></g></g></svg>